<?xml version="1.0" encoding="utf-8"?>
<!-- Generator: Adobe Illustrator 15.1.0, SVG Export Plug-In  -->
<!DOCTYPE svg PUBLIC "-//W3C//DTD SVG 1.1//EN" "http://www.w3.org/Graphics/SVG/1.1/DTD/svg11.dtd" [
	<!ENTITY ns_flows "http://ns.adobe.com/Flows/1.0/">
]>
<svg version="1.1"
	 xmlns="http://www.w3.org/2000/svg" xmlns:xlink="http://www.w3.org/1999/xlink" xmlns:a="http://ns.adobe.com/AdobeSVGViewerExtensions/3.0/"
	 x="0px" y="0px" width="133px" height="36px" viewBox="-0.454 -0.875 133 36" enable-background="new -0.454 -0.875 133 36"
	 xml:space="preserve">
<defs>
</defs>
<path fill="#00A6EC" d="M17.892,0.179l-0.504,1.864c-1.632,0.359-2.784,0.766-3.456,1.22c-0.96,0.669-1.632,1.757-2.016,3.262
	l-0.612,2.403l5.112,0.036l-0.576,2.448c-2.328,0.287-3.996,1.04-5.004,2.258c-0.864,1.052-1.561,2.653-2.088,4.803l-2.304,9.319H0
	l3.636-14.868c0.024-0.144,0.066-0.33,0.126-0.558c0.06-0.228,0.09-0.39,0.09-0.486c0-0.312-0.301-0.468-0.9-0.468h-2.34
	l0.612-2.448h3.384l0.756-2.52c0.648-2.16,2.076-3.816,4.284-4.968C11.52,0.492,13.644,0,16.02,0c0.432,0,0.923,0.036,1.476,0.107
	C17.591,0.107,17.724,0.132,17.892,0.179z"/>
<path fill="#00A6EC" d="M39.924,17.604c0,2.833-1.057,5.148-3.168,6.948c-2.592,2.209-6.564,3.313-11.916,3.313l-1.692-0.036
	l0.468-1.944c0.6,0,1.428-0.107,2.484-0.324c1.92-0.383,3.456-0.995,4.608-1.836c1.656-1.175,2.484-2.735,2.484-4.68
	c0-2.016-0.852-3.024-2.556-3.024c-1.608,0-3.181,0.792-4.716,2.376c-1.8,1.848-3.252,4.536-4.356,8.064l-2.772,8.82h-6.048
	l5.868-23.76h6.66l-1.728,6.012c1.848-1.704,3.336-3.012,4.464-3.924c2.088-1.704,4.116-2.556,6.084-2.556
	c1.607,0,2.981,0.619,4.122,1.854C39.353,14.143,39.924,15.708,39.924,17.604z"/>
<path fill="#010101" d="M44.04,14.375h1.508v2.548H45.6c0.754-1.846,2.6-2.938,4.784-2.938c4.082,0,6.032,3.276,6.032,7.099
	s-1.95,7.098-6.032,7.098c-1.976,0-3.952-0.987-4.654-2.938h-0.052v7.514H44.04V14.375z M50.384,15.363
	c-3.64,0-4.706,2.678-4.706,5.721c0,2.782,1.248,5.72,4.706,5.72c3.12,0,4.394-2.938,4.394-5.72S53.504,15.363,50.384,15.363z"/>
<path fill="#010101" d="M58.989,9.228h1.638v18.564h-1.638V9.228z"/>
<path fill="#010101" d="M63.617,18.483c0.182-3.146,2.34-4.498,5.435-4.498c2.365,0,4.939,0.702,4.939,4.316v7.124
	c0,0.65,0.313,0.988,0.962,0.988c0.183,0,0.339-0.026,0.521-0.104v1.379c-0.39,0.077-0.624,0.104-1.066,0.104
	c-1.664,0-1.924-0.962-1.924-2.34h-0.052c-1.17,1.742-2.288,2.729-4.889,2.729c-2.496,0-4.498-1.222-4.498-3.926
	c0-3.744,3.666-3.9,7.202-4.316c1.353-0.13,2.106-0.364,2.106-1.82c0-2.21-1.561-2.756-3.51-2.756c-2.055,0-3.511,0.937-3.588,3.12
	H63.617z M72.354,20.46h-0.052c-0.208,0.39-0.937,0.52-1.378,0.598c-2.782,0.494-6.241,0.494-6.241,3.094
	c0,1.639,1.43,2.652,2.99,2.652c2.522,0,4.681-1.586,4.681-4.212V20.46z"/>
<path fill="#010101" d="M79.867,14.375h2.73v1.378h-2.73v9.048c0,1.066,0.156,1.69,1.326,1.769c0.468,0,0.936-0.026,1.404-0.078
	v1.403c-0.494,0-0.962,0.053-1.456,0.053c-2.185,0-2.938-0.729-2.912-3.017v-9.178h-2.341v-1.378h2.341v-4.03h1.638V14.375z"/>
<path fill="#010101" d="M90.137,15.753h-2.651v12.039h-1.639V15.753h-2.288v-1.378h2.288v-1.222c0-2.314,0.599-3.926,3.25-3.926
	c0.494,0,0.858,0.026,1.378,0.104v1.404c-0.441-0.078-0.806-0.13-1.195-0.13c-1.794,0-1.794,1.17-1.794,2.6v1.17h2.651V15.753z"/>
<path fill="#010101" d="M103.709,21.084c0,3.848-2.262,7.098-6.345,7.098c-4.082,0-6.344-3.25-6.344-7.098
	c0-3.849,2.262-7.099,6.344-7.099C101.447,13.985,103.709,17.235,103.709,21.084z M92.658,21.084c0,2.834,1.586,5.72,4.706,5.72
	s4.707-2.886,4.707-5.72c0-2.834-1.587-5.721-4.707-5.721S92.658,18.25,92.658,21.084z"/>
<path fill="#010101" d="M106.152,14.375h1.508v3.146h0.053c0.832-2.184,2.651-3.432,5.07-3.328v1.638
	c-2.965-0.13-4.992,2.002-4.992,4.81v7.15h-1.639V14.375z"/>
<path fill="#010101" d="M114.342,14.375h1.509v2.262h0.078c0.857-1.638,2.235-2.652,4.394-2.652c1.769,0,3.354,0.858,3.849,2.626
	c0.806-1.768,2.496-2.626,4.264-2.626c2.964,0,4.446,1.56,4.446,4.706v9.101h-1.638V18.77c0-2.21-0.807-3.406-3.173-3.406
	c-2.834,0-3.64,2.34-3.64,4.837v7.592h-1.638v-9.101c0-1.82-0.702-3.328-2.809-3.328c-2.808,0-4.004,2.132-4.004,4.94v7.488h-1.639
	V14.375z"/>
<path fill="#010101" d="M18.084,8.992l2.749-7.158h1.021l2.93,7.158h-1.079l-0.835-2.168h-2.993L19.09,8.992H18.084z M20.149,6.053
	h2.427L21.829,4.07c-0.228-0.602-0.397-1.097-0.508-1.484c-0.091,0.459-0.22,0.915-0.386,1.367L20.149,6.053z"/>
<path fill="#010101" d="M26.017,9.422l0.854,0.127c0.036,0.264,0.135,0.456,0.298,0.576c0.218,0.163,0.516,0.244,0.894,0.244
	c0.407,0,0.721-0.082,0.942-0.244s0.371-0.391,0.449-0.684c0.045-0.179,0.067-0.555,0.063-1.128
	c-0.384,0.453-0.863,0.679-1.436,0.679c-0.713,0-1.265-0.257-1.655-0.771s-0.586-1.131-0.586-1.851c0-0.495,0.089-0.951,0.269-1.37
	s0.438-0.741,0.779-0.969s0.74-0.342,1.199-0.342c0.612,0,1.117,0.248,1.514,0.742V3.807h0.811v4.482
	c0,0.807-0.082,1.379-0.247,1.716s-0.425,0.603-0.781,0.798s-0.795,0.293-1.316,0.293c-0.619,0-1.118-0.139-1.499-0.417
	S26.003,9.982,26.017,9.422z M26.744,6.307c0,0.68,0.135,1.177,0.405,1.489s0.609,0.469,1.016,0.469
	c0.404,0,0.742-0.155,1.016-0.466s0.41-0.798,0.41-1.462c0-0.635-0.141-1.113-0.422-1.436s-0.621-0.483-1.018-0.483
	c-0.391,0-0.723,0.159-0.996,0.476S26.744,5.682,26.744,6.307z"/>
<path fill="#010101" d="M32.479,8.992V3.807h0.791v0.786c0.202-0.368,0.388-0.61,0.559-0.728s0.359-0.176,0.564-0.176
	c0.296,0,0.597,0.094,0.903,0.283l-0.303,0.815c-0.215-0.127-0.43-0.19-0.645-0.19c-0.192,0-0.365,0.058-0.518,0.173
	s-0.262,0.276-0.327,0.481c-0.098,0.313-0.146,0.654-0.146,1.025v2.715H32.479z"/>
<path fill="#010101" d="M36.574,2.845V1.834h0.879v1.011H36.574z M36.574,8.992V3.807h0.879v5.186H36.574z"/>
<path fill="#010101" d="M39.502,10.989l-0.098-0.825c0.192,0.052,0.36,0.078,0.503,0.078c0.195,0,0.352-0.033,0.469-0.098
	s0.213-0.156,0.288-0.273c0.055-0.088,0.145-0.306,0.269-0.654c0.016-0.049,0.042-0.121,0.078-0.215l-1.968-5.195h0.947l1.079,3.003
	c0.14,0.381,0.265,0.781,0.376,1.201c0.101-0.404,0.221-0.797,0.361-1.182l1.108-3.022h0.879L41.821,9.08
	c-0.211,0.57-0.376,0.962-0.493,1.177c-0.156,0.29-0.335,0.502-0.537,0.637s-0.443,0.203-0.723,0.203
	C39.899,11.097,39.71,11.061,39.502,10.989z"/>
<path fill="#010101" d="M48.675,8.353c-0.326,0.277-0.639,0.472-0.94,0.586s-0.624,0.171-0.969,0.171
	c-0.57,0-1.007-0.139-1.313-0.417s-0.459-0.634-0.459-1.067c0-0.254,0.058-0.486,0.173-0.696s0.267-0.378,0.454-0.505
	s0.398-0.223,0.632-0.288c0.172-0.045,0.433-0.089,0.781-0.132c0.709-0.084,1.232-0.186,1.567-0.303
	c0.003-0.121,0.005-0.197,0.005-0.229c0-0.358-0.083-0.61-0.249-0.757c-0.225-0.199-0.558-0.298-1.001-0.298
	c-0.414,0-0.719,0.072-0.916,0.217s-0.343,0.401-0.437,0.769l-0.859-0.117c0.078-0.368,0.207-0.665,0.386-0.891
	s0.438-0.4,0.776-0.522s0.731-0.183,1.177-0.183c0.443,0,0.802,0.052,1.079,0.156s0.48,0.235,0.61,0.393s0.221,0.357,0.273,0.598
	c0.029,0.15,0.044,0.42,0.044,0.811v1.172c0,0.817,0.019,1.334,0.056,1.55s0.111,0.424,0.222,0.623h-0.918
	C48.759,8.81,48.701,8.597,48.675,8.353z M48.602,6.39c-0.319,0.13-0.797,0.241-1.436,0.332c-0.361,0.052-0.617,0.111-0.767,0.176
	s-0.265,0.16-0.347,0.286s-0.122,0.265-0.122,0.417c0,0.234,0.089,0.43,0.266,0.586s0.437,0.234,0.779,0.234
	c0.338,0,0.64-0.074,0.903-0.222s0.458-0.351,0.581-0.608c0.094-0.199,0.142-0.492,0.142-0.879V6.39z"/>
</svg>
